<?xml version="1.0" encoding="UTF-8" standalone="no"?>
<!DOCTYPE svg PUBLIC "-//W3C//DTD SVG 1.1//EN" "http://www.w3.org/Graphics/SVG/1.1/DTD/svg11.dtd">
<svg width="100%" height="100%" viewBox="0 0 1637 823" version="1.1" xmlns="http://www.w3.org/2000/svg" xmlns:xlink="http://www.w3.org/1999/xlink" xml:space="preserve" xmlns:serif="http://www.serif.com/" style="fill-rule:evenodd;clip-rule:evenodd;stroke-linejoin:round;stroke-miterlimit:2;">
    <g transform="matrix(1,0,0,1,-2938.8,-822.059)">
        <g id="Artboard1" transform="matrix(1,0,0,1,4206.02,1956.59)">
            <rect x="-4206.02" y="-1956.59" width="10132.5" height="8190.07" style="fill:none;"/>
            <g id="Layer-1" serif:id="Layer 1" transform="matrix(4.16667,0,0,4.16667,0.98048,0.409571)">
                <g transform="matrix(1.78553,1.30104e-18,-1.30104e-18,1.78553,86.8118,-241.605)">
                    <path d="M0,32.101C-0.083,35.541 -0.165,39.001 -0.494,42.411C-0.669,44.176 -1.338,45.913 -1.915,47.596C-2.048,47.997 -2.728,48.408 -3.149,48.408C-3.817,48.417 -14.57,48.367 -30.789,48.284C-31.551,48.274 -32.146,47.627 -32.086,46.878C-32.023,46.271 -31.992,45.665 -31.992,45.06C-31.992,33.61 -41.737,24.399 -53.365,25.231C-62.986,25.918 -70.818,33.549 -71.723,43.119C-71.837,44.33 -71.847,45.523 -71.754,46.683C-71.692,47.432 -72.3,48.059 -73.05,48.059C-80.769,48.018 -88.754,47.977 -96.8,47.935L-96.8,3.81L-52.707,3.81C-48.416,3.81 -52.831,-0.729 -56.874,-2.855C-63.49,-6.346 -73.987,-9.632 -80.408,-11.048C-85.398,-12.137 -91.336,-12.825 -96.8,-13.206L-96.8,-16.316C-90.791,-15.916 -84.411,-15.177 -79.143,-14.005C-69.172,-11.809 -50.423,-5.287 -46.42,-3.831C-43.261,-2.691 -22.526,6.922 -20.221,6.922C-17.617,6.922 -12.997,7.147 -10.486,6.202C-8.582,5.494 -4.486,6.542 -3.428,10.054C-2.819,12.046 -1.862,19.306 -2.017,20.651C-2.141,21.689 -2.346,22.736 -2.501,23.772C-2.553,24.111 -2.387,24.513 -2.254,24.861C-1.328,27.202 0.051,29.421 0,32.101" style="fill:rgb(15,165,210);fill-rule:nonzero;"/>
                </g>
                <g transform="matrix(1.78553,1.30104e-18,-1.30104e-18,1.78553,-5.8705,-228.322)">
                    <path d="M0,17.174C11.293,17.174 20.479,26.346 20.479,37.62C20.479,38.241 20.448,38.872 20.386,39.496C20.369,39.686 20.437,39.881 20.574,40.032C20.718,40.19 20.913,40.277 21.127,40.281C38.345,40.368 46.497,40.404 48.381,40.404L48.749,40.403C48.973,40.403 49.399,40.124 49.457,39.977L49.685,39.319C50.186,37.878 50.703,36.387 50.849,34.916C51.177,31.535 51.26,28.044 51.34,24.668C51.378,22.731 50.634,21.065 49.845,19.301C49.598,18.746 49.35,18.191 49.127,17.629C48.956,17.187 48.775,16.717 48.847,16.249C48.905,15.854 48.973,15.455 49.038,15.057C49.146,14.419 49.252,13.78 49.328,13.145C49.465,11.954 48.563,4.828 47.938,2.778C47.129,0.094 44.386,-0.88 42.739,-0.88C42.311,-0.88 41.923,-0.821 41.618,-0.707C39.787,-0.018 36.964,0.07 34.709,0.07C34.104,0.07 33.519,0.063 32.976,0.058C32.509,0.052 32.075,0.046 31.687,0.046C30.147,0.046 22.591,-3.22 12.871,-7.49C9.356,-9.034 6.323,-10.368 5.295,-10.739C1.212,-12.226 -17.428,-18.705 -27.357,-20.895C-33.094,-22.168 -39.645,-22.823 -44.327,-23.151L-44.327,-21.171C-39.976,-20.854 -33.847,-20.233 -28.38,-19.041C-21.505,-17.523 -11.164,-14.202 -4.702,-10.794C-1.809,-9.271 1.952,-6.153 1.483,-4.257C1.348,-3.713 0.842,-3.064 -0.8,-3.064L-44.327,-3.064L-44.327,39.934L-21.141,40.054C-20.935,40.054 -20.733,39.967 -20.594,39.816C-20.46,39.671 -20.396,39.484 -20.412,39.289C-20.507,38.097 -20.496,36.865 -20.38,35.627C-19.453,25.841 -11.336,17.932 -1.498,17.228C-0.995,17.192 -0.495,17.174 0,17.174M48.381,41.534C46.494,41.534 38.34,41.497 21.115,41.409C20.588,41.402 20.088,41.177 19.737,40.793C19.39,40.412 19.215,39.902 19.258,39.391C19.318,38.795 19.35,38.203 19.35,37.62C19.35,26.5 9.87,17.552 -1.418,18.355C-10.711,19.019 -18.378,26.49 -19.253,35.733C-19.362,36.906 -19.373,38.072 -19.282,39.198C-19.24,39.71 -19.411,40.201 -19.761,40.581C-20.114,40.965 -20.618,41.184 -21.144,41.184L-45.46,41.057L-45.46,-4.194L-0.8,-4.194C0.013,-4.194 0.345,-4.373 0.383,-4.527C0.584,-5.337 -1.852,-8.018 -5.23,-9.795C-11.604,-13.157 -21.822,-16.435 -28.624,-17.937C-34.246,-19.163 -40.596,-19.78 -44.933,-20.08L-45.46,-20.118L-45.46,-24.36L-44.854,-24.32C-40.104,-24.003 -33.168,-23.343 -27.112,-21.997C-17.123,-19.795 1.587,-13.292 5.683,-11.8C6.744,-11.416 9.649,-10.141 13.327,-8.524C19.662,-5.741 30.264,-1.082 31.687,-1.082C32.079,-1.082 32.518,-1.078 32.988,-1.072C33.527,-1.066 34.109,-1.059 34.709,-1.059C36.867,-1.059 39.559,-1.139 41.223,-1.766C41.653,-1.926 42.177,-2.01 42.739,-2.01C45.192,-2.01 48.139,-0.477 49.021,2.451C49.638,4.475 50.614,11.86 50.452,13.276C50.374,13.932 50.265,14.588 50.155,15.243C50.09,15.636 50.024,16.027 49.966,16.417C49.939,16.59 50.061,16.906 50.16,17.161C50.396,17.761 50.638,18.301 50.88,18.842C51.683,20.64 52.515,22.5 52.472,24.673C52.391,28.091 52.308,31.602 51.977,35.025C51.817,36.632 51.277,38.186 50.754,39.689L50.528,40.339C50.307,40.999 49.379,41.533 48.758,41.533L48.381,41.534Z" style="fill:rgb(35,31,32);"/>
                </g>
                <g transform="matrix(1.78553,1.30104e-18,-1.30104e-18,1.78553,-185.615,-192.706)">
                    <path d="M0,-23.576L44.928,-23.576L44.928,20.477C27.558,20.384 10.394,20.272 -4.485,20.179C-4.919,20.179 -5.258,19.82 -5.217,19.388C-5.165,18.824 -5.134,18.248 -5.134,17.674C-5.134,6.706 -14.065,-2.207 -25.046,-2.207C-36.026,-2.207 -44.968,6.706 -44.968,17.674C-44.968,18.156 -44.947,18.639 -44.907,19.112C-44.875,19.542 -45.225,19.902 -45.657,19.891C-48.59,19.871 -50.298,19.841 -50.493,19.83C-53.149,19.615 -55.804,19.378 -58.459,19.132C-58.694,19.112 -58.973,18.926 -59.128,18.751C-60.743,16.801 -62.831,13.043 -63.429,10.475C-64.036,7.907 -63.697,5.659 -63.068,3.286C-62.688,1.87 -62.38,0.422 -62.091,-1.016C-62.028,-1.314 -62.111,-1.663 -62.205,-1.971C-63.089,-4.681 -62.4,-7.259 -61.01,-9.385C-59.981,-10.955 -52.356,-17.118 -43.743,-19.961C-34.369,-23.073 -19.51,-25.323 -14.858,-25.795C-12.771,-26.01 -10.712,-26.584 -8.633,-26.872C-6.338,-27.201 -4.136,-27.787 -2.079,-28.988C0.434,-30.456 14.284,-37.152 19.449,-39.154C24.985,-41.301 32.856,-43.077 39.442,-43.785C40.843,-43.939 42.725,-44.021 44.928,-44.053L44.928,-40.941C42.973,-40.919 41.296,-40.838 40.04,-40.704C33.69,-40.027 26.333,-38.323 21.291,-36.361C16.361,-34.461 3.222,-27.755 0.772,-26.688C-1.038,-25.897 -3.117,-23.576 0,-23.576" style="fill:rgb(141,192,68);fill-rule:nonzero;"/>
                </g>
                <g transform="matrix(1.78553,1.30104e-18,-1.30104e-18,1.78553,-230.335,-229.862)">
                    <path d="M0,18.038C11.292,18.038 20.478,27.21 20.478,38.483C20.478,39.035 20.449,39.63 20.393,40.249C20.389,40.297 20.401,40.336 20.431,40.369C20.449,40.391 20.49,40.424 20.561,40.424L31.157,40.491C43.169,40.566 56.223,40.648 69.407,40.719L69.407,-2.202L25.047,-2.202C23.774,-2.202 23.054,-2.569 22.901,-3.294C22.649,-4.499 24.357,-5.857 25.592,-6.397C26.404,-6.75 28.414,-7.735 30.958,-8.983C35.973,-11.442 42.841,-14.809 46.133,-16.079C51.216,-18.055 58.633,-19.775 65.026,-20.457C66.182,-20.58 67.688,-20.659 69.407,-20.689L69.407,-22.668C67.37,-22.63 65.738,-22.545 64.551,-22.414C57.827,-21.691 50.036,-19.887 44.7,-17.817C39.535,-15.817 25.651,-9.094 23.254,-7.691C21.367,-6.59 19.219,-5.895 16.493,-5.504C15.585,-5.379 14.659,-5.192 13.763,-5.014C12.618,-4.784 11.434,-4.545 10.246,-4.423C5.91,-3.983 -8.961,-1.789 -18.519,1.384C-26.913,4.155 -34.504,10.227 -35.49,11.733C-36.522,13.312 -37.557,15.796 -36.62,18.663C-36.505,19.046 -36.402,19.483 -36.49,19.908C-36.751,21.208 -37.073,22.743 -37.477,24.242C-38.021,26.304 -38.442,28.571 -37.832,31.155C-37.254,33.642 -35.2,37.323 -33.646,39.201C-33.567,39.288 -33.42,39.371 -33.363,39.378C-30.707,39.625 -28.054,39.861 -25.402,40.076C-25.243,40.085 -23.556,40.116 -20.608,40.136C-20.528,40.136 -20.486,40.102 -20.469,40.082C-20.445,40.059 -20.42,40.018 -20.425,39.961C-20.467,39.482 -20.487,38.983 -20.487,38.483C-20.487,27.21 -11.298,18.038 0,18.038M70.539,41.854L69.972,41.85C56.591,41.78 43.335,41.696 31.15,41.619L20.556,41.554C20.191,41.554 19.839,41.398 19.593,41.129C19.351,40.863 19.231,40.504 19.267,40.144C19.319,39.561 19.347,39.002 19.347,38.483C19.347,27.832 10.667,19.168 0,19.168C-10.673,19.168 -19.356,27.832 -19.356,38.483C-19.356,38.95 -19.336,39.415 -19.297,39.871C-19.271,40.236 -19.395,40.59 -19.64,40.851C-19.884,41.115 -20.232,41.266 -20.594,41.266C-23.426,41.247 -25.247,41.215 -25.477,41.203C-28.151,40.987 -30.808,40.749 -33.465,40.504C-33.895,40.466 -34.296,40.174 -34.507,39.934C-36.147,37.952 -38.301,34.138 -38.934,31.412C-39.603,28.59 -39.153,26.159 -38.569,23.952C-38.175,22.481 -37.858,20.969 -37.601,19.683C-37.557,19.476 -37.661,19.131 -37.701,19.002C-38.547,16.408 -38.111,13.678 -36.439,11.116C-35.363,9.474 -27.654,3.211 -18.874,0.312C-9.228,-2.891 5.761,-5.104 10.129,-5.547C11.263,-5.664 12.421,-5.896 13.54,-6.12C14.452,-6.303 15.396,-6.492 16.335,-6.623C18.908,-6.991 20.926,-7.641 22.682,-8.666C25.164,-10.117 38.948,-16.801 44.289,-18.87C49.711,-20.973 57.615,-22.805 64.429,-23.538C65.779,-23.686 67.591,-23.775 69.966,-23.807L70.539,-23.816L70.539,-19.573L69.979,-19.567C68.063,-19.546 66.392,-19.466 65.146,-19.334C58.844,-18.661 51.541,-16.97 46.542,-15.025C43.294,-13.774 36.454,-10.42 31.457,-7.97C28.9,-6.716 26.881,-5.726 26.045,-5.361C24.847,-4.838 23.945,-3.81 24.009,-3.525C24.012,-3.526 24.188,-3.332 25.047,-3.332L70.539,-3.332L70.539,41.854Z" style="fill:rgb(35,31,32);"/>
                </g>
                <g transform="matrix(1.78553,1.30104e-18,-1.30104e-18,1.78553,-105.395,-239.075)">
                    <path d="M0,-12.538L0,0L-40.07,0C-39.36,-0.349 -38.578,-0.739 -37.734,-1.15C-32.754,-3.584 -25.941,-6.931 -22.772,-8.163C-17.905,-10.053 -10.784,-11.696 -4.631,-12.343C-3.787,-12.434 -1.883,-12.497 0,-12.538" style="fill:rgb(15,165,210);fill-rule:nonzero;"/>
                </g>
                <g transform="matrix(1.78553,1.30104e-18,-1.30104e-18,1.78553,-11.1573,-260.581)">
                    <path d="M0,12.045L-41.932,12.045L-41.932,0C-36.098,0.431 -29.831,1.098 -26.055,1.93C-19.541,3.368 -9.291,6.644 -3.128,9.889C-1.914,10.526 -0.823,11.327 0,12.045" style="fill:rgb(141,192,68);fill-rule:nonzero;"/>
                </g>
                <g transform="matrix(1.78553,1.30104e-18,-1.30104e-18,1.78553,-5.87211,-191.348)">
                    <path d="M0,33.814C-9.341,33.814 -16.942,26.23 -16.942,16.907C-16.942,7.584 -9.341,0 0,0C9.341,0 16.942,7.584 16.942,16.907C16.942,26.23 9.341,33.814 0,33.814" style="fill:rgb(141,192,68);fill-rule:nonzero;"/>
                </g>
                <g transform="matrix(1.78553,1.30104e-18,-1.30104e-18,1.78553,-5.87211,-129.965)">
                    <path d="M0,-34.942C-9.669,-34.942 -17.508,-27.12 -17.508,-17.471C-17.508,-7.822 -9.669,0 0,0C9.669,0 17.508,-7.822 17.508,-17.471C17.508,-27.12 9.669,-34.942 0,-34.942M0,-33.813C9.029,-33.813 16.375,-26.482 16.375,-17.471C16.375,-8.461 9.029,-1.129 0,-1.129C-9.029,-1.129 -16.376,-8.461 -16.376,-17.471C-16.376,-26.482 -9.029,-33.813 0,-33.813" style="fill:rgb(35,31,32);"/>
                </g>
                <g transform="matrix(1.78553,1.30104e-18,-1.30104e-18,1.78553,-230.346,-191.348)">
                    <path d="M0,33.814C-9.342,33.814 -16.942,26.23 -16.942,16.907C-16.942,7.584 -9.342,0 0,0C9.342,0 16.942,7.584 16.942,16.907C16.942,26.23 9.342,33.814 0,33.814" style="fill:rgb(15,165,210);fill-rule:nonzero;"/>
                </g>
                <g transform="matrix(1.78553,1.30104e-18,-1.30104e-18,1.78553,-230.346,-129.965)">
                    <path d="M0,-34.942C-9.669,-34.942 -17.508,-27.12 -17.508,-17.471C-17.508,-7.822 -9.669,0 0,0C9.669,0 17.508,-7.822 17.508,-17.471C17.508,-27.12 9.669,-34.942 0,-34.942M0,-33.813C9.029,-33.813 16.376,-26.482 16.376,-17.471C16.376,-8.461 9.029,-1.129 0,-1.129C-9.029,-1.129 -16.376,-8.461 -16.376,-17.471C-16.376,-26.482 -9.029,-33.813 0,-33.813" style="fill:rgb(35,31,32);"/>
                </g>
                <g transform="matrix(1,0,0,1,0,-1.85848)">
                    <g transform="matrix(0.570088,1.40946e-18,-1.40946e-18,0.570088,-286.712,-96.4465)">
                        <path d="M0,3.252L0,24.921C0,28.6 0.641,31.127 1.921,32.5C3.202,33.879 5.956,34.564 10.188,34.564L10.188,41.014L-30.971,41.014L-30.971,34.564C-26.818,34.564 -24.052,33.916 -22.676,32.618C-21.298,31.323 -20.609,28.755 -20.609,24.921L-20.609,-21.671C-20.609,-25.389 -21.26,-27.925 -22.559,-29.279C-23.86,-30.633 -26.662,-31.313 -30.971,-31.313L-30.971,-37.762L10.188,-37.762L10.188,-31.313C6.073,-31.313 3.348,-30.644 2.007,-29.31C0.669,-27.973 0,-25.426 0,-21.671L0,-4.01L32.425,-4.01L32.425,-21.671C32.425,-25.308 31.794,-27.829 30.533,-29.22C29.271,-30.616 26.563,-31.313 22.412,-31.313L22.412,-37.762L63.453,-37.762L63.453,-31.313C59.26,-31.313 56.477,-30.673 55.099,-29.397C53.72,-28.116 53.032,-25.544 53.032,-21.671L53.032,24.921C53.032,28.678 53.692,31.226 55.011,32.558C56.332,33.897 59.145,34.564 63.453,34.564L63.453,41.014L22.412,41.014L22.412,34.564C26.487,34.564 29.174,33.888 30.474,32.528C31.775,31.176 32.425,28.64 32.425,24.921L32.425,3.252L0,3.252Z" style="fill:rgb(35,31,32);"/>
                    </g>
                    <g transform="matrix(1,0,0,1,0,-7.13536)">
                        <g transform="matrix(0.546598,1.73472e-18,-1.73472e-18,0.546598,-235.762,-88.9102)">
                            <path d="M0,2.441L0,16.061C0,18.665 0.149,20.365 0.449,21.167C0.747,21.966 1.548,22.628 2.852,23.157C4.157,23.685 6.14,23.95 8.802,23.95C12.416,23.95 15.07,23.503 16.77,22.611C18.468,21.714 19.988,20.142 21.333,17.894C22.679,15.642 23.649,13.241 24.247,10.696L28.81,10.696L28.444,28.792L-22.086,28.792L-22.086,24.277L-21.067,24.277C-18.324,24.277 -16.538,23.767 -15.708,22.752C-14.881,21.735 -14.466,19.994 -14.466,17.527L-14.466,-15.169C-14.466,-17.688 -14.894,-19.445 -15.748,-20.433C-16.604,-21.421 -18.378,-21.918 -21.067,-21.918L-22.086,-21.918L-22.086,-26.351L24.98,-26.351L25.795,-12.079L21.231,-12.079C20.417,-14.572 19.506,-16.556 18.5,-18.035C17.496,-19.515 16.485,-20.463 15.465,-20.882C14.446,-21.302 12.728,-21.513 10.311,-21.513L0,-21.513L0,-2.482L5.135,-2.482C7.58,-2.482 9.204,-2.941 10.004,-3.864C10.805,-4.786 11.261,-6.601 11.369,-9.312L15.975,-9.312L15.975,9.393L11.369,9.393C11.396,9.042 11.411,8.783 11.411,8.623C11.411,7.048 11.077,5.625 10.412,4.352C9.745,3.08 8.042,2.441 5.298,2.441L0,2.441Z" style="fill:rgb(35,31,32);"/>
                        </g>
                        <g transform="matrix(0.546598,1.73472e-18,-1.73472e-18,0.546598,-210.392,-93.1545)">
                            <path d="M0,16.996L13.408,16.996L6.52,0.526L0,16.996ZM-1.751,21.672L-2.812,24.395C-3.571,26.32 -3.952,27.675 -3.952,28.463C-3.952,29.789 -3.504,30.721 -2.608,31.249C-1.711,31.778 -0.245,32.041 1.793,32.041L1.793,36.558L-16.462,36.558L-16.462,32.041C-12.986,32.041 -10.066,29.088 -7.701,23.178L9.291,-19.562L14.059,-19.562L31.378,23.138C33.089,27.365 34.638,29.904 36.023,30.76C37.408,31.616 38.739,32.041 40.017,32.041L40.017,36.558L12.591,36.558L12.591,32.041C15.063,32.041 16.599,31.807 17.197,31.329C17.794,30.855 18.093,30.253 18.093,29.519C18.093,28.871 17.848,28.015 17.359,26.957L16.83,25.699L15.241,21.672L-1.751,21.672Z" style="fill:rgb(35,31,32);"/>
                        </g>
                        <g transform="matrix(0.546598,1.73472e-18,-1.73472e-18,0.546598,-160.81,-93.2875)">
                            <path d="M0,18.457L-0.245,36.8L-50.612,36.8L-50.612,32.285L-49.797,32.285C-47.025,32.285 -45.226,31.776 -44.398,30.76C-43.569,29.743 -43.155,28.002 -43.155,25.535L-43.155,-7.077C-43.155,-9.599 -43.589,-11.357 -44.458,-12.345C-45.329,-13.333 -47.108,-13.828 -49.797,-13.828L-50.612,-13.828L-50.612,-18.343L-20.987,-18.343L-20.987,-13.828L-22.086,-13.828C-24.858,-13.828 -26.657,-13.321 -27.486,-12.306C-28.315,-11.287 -28.73,-9.548 -28.73,-7.077L-28.73,24.396C-28.73,26.752 -28.594,28.314 -28.321,29.074C-28.051,29.831 -27.337,30.489 -26.183,31.044C-25.027,31.602 -23.011,31.877 -20.132,31.877C-15.295,31.877 -11.683,30.664 -9.291,28.24C-6.9,25.811 -5.272,22.553 -4.4,18.457L0,18.457Z" style="fill:rgb(35,31,32);"/>
                        </g>
                        <g transform="matrix(0.546598,1.73472e-18,-1.73472e-18,0.546598,-150.765,-75.8625)">
                            <path d="M0,-45.301L-4.646,-45.301C-7.416,-45.301 -9.453,-45.003 -10.758,-44.408C-12.062,-43.81 -13.155,-42.624 -14.039,-40.849C-14.921,-39.071 -15.458,-36.965 -15.648,-34.528L-20.253,-34.528L-20.253,-50.222L35.045,-50.222L35.045,-34.528L30.439,-34.528C29.57,-38.755 28.349,-41.609 26.772,-43.086C25.197,-44.564 22.685,-45.301 19.234,-45.301L14.466,-45.301L14.466,-6.345C14.466,-3.822 14.894,-2.068 15.75,-1.076C16.604,-0.088 18.405,0.406 21.15,0.406L22.576,0.406L22.576,4.921L-7.946,4.921L-7.946,0.406L-6.642,0.406C-3.872,0.406 -2.073,-0.103 -1.244,-1.119C-0.415,-2.137 0,-3.877 0,-6.345L0,-45.301Z" style="fill:rgb(35,31,32);"/>
                        </g>
                        <g transform="matrix(0.546598,1.73472e-18,-1.73472e-18,0.546598,-117.176,-88.8649)">
                            <path d="M0,2.275L0,17.443C0,20.017 0.448,21.786 1.346,22.752C2.242,23.711 4.171,24.194 7.131,24.194L7.131,28.709L-21.679,28.709L-21.679,24.194C-18.772,24.194 -16.837,23.739 -15.871,22.833C-14.908,21.923 -14.425,20.127 -14.425,17.443L-14.425,-15.169C-14.425,-17.771 -14.881,-19.546 -15.791,-20.497C-16.7,-21.447 -18.663,-21.918 -21.679,-21.918L-21.679,-26.434L7.131,-26.434L7.131,-21.918C4.251,-21.918 2.344,-21.454 1.406,-20.517C0.469,-19.58 0,-17.799 0,-15.169L0,-2.806L22.698,-2.806L22.698,-15.169C22.698,-17.719 22.257,-19.479 21.374,-20.455C20.49,-21.432 18.596,-21.918 15.689,-21.918L15.689,-26.434L44.418,-26.434L44.418,-21.918C41.483,-21.918 39.533,-21.474 38.57,-20.579C37.604,-19.684 37.123,-17.88 37.123,-15.169L37.123,17.443C37.123,20.075 37.585,21.856 38.51,22.793C39.433,23.725 41.402,24.194 44.418,24.194L44.418,28.709L15.689,28.709L15.689,24.194C18.542,24.194 20.424,23.719 21.332,22.768C22.244,21.822 22.698,20.046 22.698,17.443L22.698,2.275L0,2.275Z" style="fill:rgb(35,31,32);"/>
                        </g>
                        <g transform="matrix(0.546598,1.73472e-18,-1.73472e-18,0.546598,-80.0905,-90.9538)">
                            <path d="M0,9.92L-12.429,-10.818C-14.385,-14.072 -15.905,-16.098 -16.992,-16.899C-18.079,-17.7 -19.519,-18.097 -21.311,-18.097L-21.311,-22.611L6.399,-22.611L6.399,-18.097C3.409,-18.097 1.916,-17.298 1.916,-15.701C1.916,-14.806 2.473,-13.435 3.587,-11.595L12.633,3.37L20.945,-10.454C21.815,-11.864 22.251,-13.205 22.251,-14.477C22.251,-16.891 20.471,-18.097 16.912,-18.097L16.912,-22.611L35.861,-22.611L35.861,-18.097C34.095,-18.097 32.512,-17.448 31.113,-16.146C29.714,-14.846 27.712,-12.093 25.104,-7.891L14.63,9.024L14.63,21.266C14.63,23.787 15.058,25.543 15.913,26.533C16.77,27.522 18.542,28.015 21.231,28.015L22.086,28.015L22.086,32.531L-7.539,32.531L-7.539,28.015L-6.642,28.015C-3.87,28.015 -2.071,27.508 -1.242,26.489C-0.415,25.473 0,23.733 0,21.266L0,9.92Z" style="fill:rgb(35,31,32);"/>
                        </g>
                    </g>
                </g>
                <g transform="matrix(1,0,0,1,0,-1.92)">
                    <g transform="matrix(0.947185,0.00451086,-0.00451086,0.947185,-3.48328,-100.438)">
                        <path d="M0,10.447L0,27.6L-3.748,27.6C-4.176,25.78 -4.817,24.32 -5.672,23.219C-9.479,27.041 -14.499,28.95 -20.734,28.95C-27.827,28.95 -33.5,26.634 -37.756,22.007C-42.011,17.38 -44.138,11.885 -44.138,5.527C-44.138,-0.742 -42.033,-6.314 -37.823,-11.19C-33.613,-16.064 -27.792,-18.503 -20.363,-18.503C-14.802,-18.503 -10.085,-16.669 -6.213,-13.01C-5.696,-14.154 -5.223,-15.514 -4.795,-17.085L-1.08,-17.085L-0.608,-0.203L-4.321,-0.203C-5.426,-4.785 -7.231,-8.252 -9.742,-10.599C-12.254,-12.948 -15.23,-14.12 -18.675,-14.12C-22.637,-14.12 -25.62,-12.571 -27.624,-9.472C-29.629,-6.368 -30.629,-1.529 -30.629,5.054C-30.629,9.684 -30.27,13.349 -29.549,16.057C-28.829,18.765 -27.404,20.848 -25.277,22.309C-23.148,23.77 -20.824,24.501 -18.304,24.501C-14.971,24.501 -11.999,23.344 -9.389,21.028C-6.776,18.716 -4.896,15.188 -3.748,10.447L0,10.447Z" style="fill:rgb(35,31,32);"/>
                    </g>
                    <g transform="matrix(0.947185,0.00451086,-0.00451086,0.947185,8.87901,-100.316)">
                        <path d="M0,9.857L7.777,9.857L3.782,0.304L0,9.857ZM-1.016,12.572L-1.632,14.151C-2.072,15.268 -2.293,16.055 -2.293,16.51C-2.293,17.281 -2.033,17.82 -1.514,18.128C-0.992,18.433 -0.143,18.587 1.039,18.587L1.039,21.206L-9.551,21.206L-9.551,18.587C-7.533,18.587 -5.84,16.873 -4.467,13.443L5.39,-11.349L8.156,-11.349L18.203,13.42C19.194,15.875 20.094,17.348 20.897,17.844C21.701,18.339 22.473,18.587 23.215,18.587L23.215,21.206L7.304,21.206L7.304,18.587C8.738,18.587 9.629,18.449 9.976,18.173C10.321,17.897 10.496,17.546 10.496,17.124C10.496,16.747 10.354,16.252 10.07,15.637L9.763,14.907L8.841,12.572L-1.016,12.572Z" style="fill:rgb(35,31,32);"/>
                    </g>
                    <g transform="matrix(0.947185,0.00451086,-0.00451086,0.947185,42.9527,-94.7129)">
                        <path d="M0,-1.933C2.662,-1.904 4.46,-2.063 5.39,-2.416C6.32,-2.771 7.052,-3.41 7.589,-4.329C8.124,-5.248 8.393,-6.495 8.393,-8.069C8.393,-10.317 7.86,-11.874 6.796,-12.737C5.732,-13.603 3.9,-14.037 1.3,-14.037C0.97,-14.037 0.535,-14.027 0,-14.011L0,-1.933ZM0,0.945L0,8.517C0,9.98 0.251,10.998 0.756,11.573C1.261,12.148 2.293,12.434 3.853,12.434L4.42,12.434L4.42,15.051L-12.859,15.051L-12.859,12.434L-12.222,12.434C-10.614,12.434 -9.57,12.138 -9.09,11.547C-8.609,10.958 -8.369,9.948 -8.369,8.517L-8.369,-10.402C-8.369,-11.866 -8.62,-12.884 -9.125,-13.457C-9.629,-14.032 -10.662,-14.318 -12.222,-14.318L-12.859,-14.318L-12.859,-16.936L0,-16.961L2.885,-16.984C5.737,-16.984 7.82,-16.89 9.138,-16.701C10.452,-16.512 11.749,-16.06 13.025,-15.344C14.303,-14.629 15.307,-13.651 16.039,-12.407C16.772,-11.163 17.14,-9.827 17.14,-8.398C17.14,-4.593 14.979,-1.989 10.662,-0.589C11.812,0.135 13.602,2.4 16.027,6.206C17.919,9.146 19.267,10.92 20.07,11.524C20.874,12.13 21.756,12.434 22.718,12.434L22.718,15.051L12.693,15.051C11.78,13.966 10.086,11.213 7.612,6.796C6.366,4.562 5.492,3.122 4.988,2.478C4.483,1.834 3.968,1.42 3.439,1.24C2.911,1.059 1.765,0.96 0,0.945" style="fill:rgb(35,31,32);"/>
                    </g>
                    <g transform="matrix(0.947185,0.00451086,-0.00451086,0.947185,66.8733,-110.225)">
                        <path d="M0,30.811L0,19.863L2.835,19.863C3.623,23.135 4.807,25.47 6.383,26.871C7.958,28.27 9.66,28.969 11.489,28.969C12.844,28.969 13.923,28.567 14.727,27.766C15.531,26.964 15.932,26.022 15.932,24.936C15.932,24.165 15.681,23.395 15.176,22.622C14.672,21.852 13.473,20.997 11.583,20.053C7.942,18.243 5.483,16.919 4.208,16.078C2.931,15.236 1.906,14.155 1.134,12.834C0.362,11.511 -0.024,9.996 -0.024,8.281C-0.024,5.53 0.965,3.261 2.942,1.474C4.92,-0.309 7.209,-1.203 9.811,-1.203C12.536,-1.203 14.853,-0.291 16.76,1.535C17.074,1.061 17.336,0.337 17.539,-0.635L20.258,-0.635L20.258,8.799L17.611,8.799C17.138,6.707 16.239,4.987 14.916,3.634C13.593,2.281 12.104,1.604 10.448,1.604C9.203,1.604 8.214,1.952 7.48,2.642C6.748,3.333 6.383,4.201 6.383,5.237C6.383,6.04 6.619,6.783 7.091,7.466C7.563,8.152 8.202,8.718 9.006,9.165C9.811,9.614 11.512,10.443 14.112,11.656C16.445,12.755 18.17,13.738 19.29,14.603C20.408,15.468 21.295,16.558 21.948,17.87C22.602,19.184 22.93,20.603 22.93,22.129C22.93,24.958 21.881,27.315 19.785,29.194C17.689,31.075 15.191,32.014 12.293,32.014C10.637,32.014 9.018,31.667 7.434,30.973C5.851,30.284 4.586,29.362 3.641,28.215C3.277,28.923 3.01,29.787 2.835,30.811L0,30.811Z" style="fill:rgb(35,31,32);"/>
                    </g>
                </g>
            </g>
        </g>
    </g>
</svg>
