<?xml version="1.0" encoding="UTF-8" standalone="no"?>
<!DOCTYPE svg PUBLIC "-//W3C//DTD SVG 1.1//EN" "http://www.w3.org/Graphics/SVG/1.1/DTD/svg11.dtd">
<svg width="100%" height="100%" viewBox="0 0 2400 600" version="1.1" xmlns="http://www.w3.org/2000/svg" xmlns:xlink="http://www.w3.org/1999/xlink" xml:space="preserve" xmlns:serif="http://www.serif.com/" style="fill-rule:evenodd;clip-rule:evenodd;stroke-linejoin:round;stroke-miterlimit:2;">
    <g id="Layer-1" serif:id="Layer 1" transform="matrix(4.16667,0,0,4.16667,0,0)">
        <g transform="matrix(1,0,0,1,247.884,114.334)">
            <path d="M0,-33.356L0.372,-33.366C0.565,-33.372 0.753,-33.374 0.934,-33.374C2.719,-33.374 3.411,-33.104 3.678,-32.879C3.969,-32.631 4.318,-31.911 4.318,-29.877L4.318,-18.69L-6.404,-18.69L-6.404,-29.877C-6.404,-31.692 -6.159,-32.403 -5.958,-32.678C-5.603,-33.143 -4.695,-33.391 -3.332,-33.391C-3.024,-33.391 -2.683,-33.383 -2.308,-33.366L-1.932,-33.348L-1.932,-35.254L-22.572,-35.254L-22.572,-33.35L-22.195,-33.366C-21.804,-33.383 -21.445,-33.391 -21.119,-33.391C-19.702,-33.391 -18.757,-33.143 -18.389,-32.674C-18.185,-32.409 -17.942,-31.71 -17.942,-29.877L-17.942,-3.481C-17.942,-1.415 -18.31,-0.7 -18.621,-0.465C-18.909,-0.245 -19.657,0.017 -21.585,0.017C-21.782,0.017 -21.988,0.015 -22.203,0.009L-22.572,-0.002L-22.572,1.898L-1.932,1.898L-1.932,-0.004L-2.305,0.009C-2.567,0.017 -2.813,0.023 -3.05,0.023C-4.81,0.023 -5.493,-0.239 -5.754,-0.456C-6.051,-0.702 -6.404,-1.428 -6.404,-3.481L-6.404,-15.526L4.318,-15.526L4.318,-3.481C4.318,-1.504 3.965,-0.768 3.667,-0.497C3.41,-0.26 2.744,0.021 1.041,0.021C0.829,0.021 0.607,0.017 0.374,0.009L0,-0.006L0,1.898L20.745,1.898L20.745,0.009L19.214,0.009C17.293,0.009 16.564,-0.387 16.301,-0.71C16.098,-0.973 15.857,-1.672 15.857,-3.504L15.857,-29.879C15.857,-31.706 16.109,-32.407 16.324,-32.67C16.583,-33.001 17.272,-33.391 19.084,-33.391C19.462,-33.391 19.891,-33.383 20.371,-33.366L20.745,-33.354L20.745,-35.254L0,-35.254L0,-33.356Z" style="fill:rgb(35,31,32);fill-rule:nonzero;"/>
        </g>
        <g transform="matrix(1,0,0,1,289.861,94.2556)">
            <path d="M0,8.678C-0.799,12.338 -2.787,14.117 -6.079,14.117L-8.414,14.117C-8.772,14.117 -9.044,14.102 -9.215,14.074C-9.529,14.014 -9.707,13.842 -9.792,13.514C-9.817,13.414 -9.862,13.127 -9.862,12.323L-9.862,5.266L-9.285,5.266C-7.43,5.266 -6.424,6.776 -6.208,9.881L-6.182,10.215L-4.714,10.215L-4.714,-1.851L-6.184,-1.851L-6.208,-1.517C-6.424,1.633 -7.507,3.164 -9.515,3.164L-9.862,3.164L-9.862,-5.441L-6.21,-5.441C-3.361,-5.441 -1.805,-3.883 -1.454,-0.679L-1.417,-0.359L0.037,-0.359L0.037,-7.541L-20.698,-7.541L-20.698,-6.072L-20.326,-6.082C-20.189,-6.088 -20.057,-6.09 -19.93,-6.09C-18.618,-6.09 -18.091,-5.861 -17.883,-5.668C-17.672,-5.474 -17.423,-4.97 -17.423,-3.646L-17.423,12.356C-17.423,13.692 -17.661,14.147 -17.812,14.305C-17.999,14.518 -18.466,14.772 -19.644,14.772C-19.79,14.772 -19.944,14.768 -20.104,14.76L-20.483,14.742L-20.483,16.219L0.246,16.219L1.516,8.395L0.063,8.395L0,8.678Z" style="fill:rgb(35,31,32);fill-rule:nonzero;"/>
        </g>
        <g transform="matrix(1,0,0,1,298.707,96.0527)">
            <path d="M0,5.084L2.068,-0.455L4.402,5.084L0,5.084ZM35.625,5.305C34.623,10.025 32.68,12.32 29.678,12.32L29.037,12.32C28.209,12.32 27.893,12.199 27.775,12.129C27.674,12.064 27.438,11.807 27.438,10.756L27.438,-5.477C27.438,-6.793 27.662,-7.256 27.799,-7.416C28.014,-7.672 28.627,-7.945 30.305,-7.879L30.68,-7.865L30.68,-9.338L16.439,-9.338L16.439,-7.869L16.811,-7.879C16.963,-7.885 17.111,-7.887 17.252,-7.887C18.598,-7.887 19.141,-7.676 19.361,-7.498C19.596,-7.309 19.877,-6.803 19.877,-5.477L19.877,10.545C19.877,11.729 19.662,12.234 19.492,12.441C19.186,12.783 18.504,12.963 17.523,12.963L16.439,12.963L16.439,12.984L16.115,12.963C15.566,12.928 15.326,12.809 15.223,12.719C15.127,12.629 14.902,12.34 14.5,11.387L5.652,-9.121L5.559,-9.338L3.047,-9.338L-3.98,9.693C-4.479,11.025 -4.922,11.916 -5.301,12.342C-5.646,12.73 -6.146,12.934 -6.832,12.963L-7.176,12.979L-7.176,14.422L0.549,14.422L0.549,12.963L0.189,12.963C-1.025,12.963 -1.578,12.795 -1.83,12.654C-2.023,12.545 -2.279,12.328 -2.279,11.678C-2.279,11.502 -2.223,11.145 -1.955,10.418L-0.805,7.186L5.281,7.186L6.867,10.838C7.098,11.357 7.215,11.807 7.215,12.17C7.215,12.33 7.215,12.699 6.402,12.869C6.227,12.904 5.791,12.947 4.707,12.963L4.354,12.967L4.354,14.422L36.303,14.422L37.211,5.018L35.684,5.018L35.625,5.305Z" style="fill:rgb(35,31,32);fill-rule:nonzero;"/>
        </g>
        <g transform="matrix(1,0,0,1,335.488,103.721)">
            <path d="M0,-10.252L1.512,-10.252L1.527,-10.594C1.672,-13.606 3.008,-15.07 5.609,-15.07L7.141,-15.07L7.141,2.891C7.141,4.162 6.875,4.682 6.652,4.891C6.453,5.078 5.975,5.301 4.813,5.301C4.697,5.301 4.578,5.299 4.453,5.295L4.08,5.283L4.08,6.754L17.727,6.754L17.727,5.295L17.367,5.295C15.844,5.295 15.324,5.029 15.152,4.869C14.947,4.682 14.703,4.186 14.703,2.891L14.703,-15.07L16.314,-15.07C17.496,-15.07 18.406,-14.729 19.1,-14.027C19.852,-13.254 20.262,-12.102 20.314,-10.598L20.324,-10.252L21.838,-10.252L21.838,-17.006L0,-17.006L0,-10.252Z" style="fill:rgb(35,31,32);fill-rule:nonzero;"/>
        </g>
        <g transform="matrix(1,0,0,1,371.967,109.006)">
            <path d="M0,-20.822L0.371,-20.832C0.49,-20.836 0.607,-20.838 0.717,-20.838C1.867,-20.838 2.248,-20.662 2.373,-20.554C2.48,-20.465 2.73,-20.105 2.73,-18.758L2.73,-11.814L-3.787,-11.814L-3.787,-18.758C-3.787,-19.929 -3.623,-20.322 -3.531,-20.449C-3.398,-20.623 -2.904,-20.894 -1.332,-20.832L-0.957,-20.816L-0.957,-22.291L-14.275,-22.291L-14.275,-20.818L-13.9,-20.832C-13.652,-20.843 -13.428,-20.847 -13.225,-20.847C-12.088,-20.847 -11.719,-20.593 -11.602,-20.447C-11.525,-20.345 -11.346,-19.982 -11.346,-18.758L-11.346,-2.064C-11.346,-0.697 -11.611,-0.349 -11.723,-0.263C-11.859,-0.16 -12.273,0.016 -13.518,0.016C-13.641,0.016 -13.77,0.014 -13.904,0.01L-14.275,0L-14.275,1.469L-0.957,1.469L-0.957,-0.002L-1.33,0.01C-1.494,0.016 -1.65,0.018 -1.795,0.018C-2.969,0.018 -3.324,-0.172 -3.422,-0.254C-3.531,-0.345 -3.787,-0.703 -3.787,-2.064L-3.787,-9.551L2.73,-9.551L2.73,-2.064C2.73,-0.801 2.5,-0.402 2.361,-0.275C2.242,-0.166 1.879,0.018 0.791,0.018C0.658,0.018 0.52,0.016 0.375,0.01L0,-0.006L0,1.469L13.385,1.469L13.385,0.01L12.283,0.01C11.059,0.01 10.666,-0.248 10.545,-0.392C10.471,-0.492 10.293,-0.855 10.293,-2.08L10.293,-18.759C10.293,-19.98 10.479,-20.342 10.561,-20.445C10.678,-20.595 11.051,-20.847 12.201,-20.847C12.439,-20.847 12.711,-20.843 13.012,-20.832L13.385,-20.822L13.385,-22.291L0,-22.291L0,-20.822Z" style="fill:rgb(35,31,32);fill-rule:nonzero;"/>
        </g>
        <g transform="matrix(1,0,0,1,402.228,109.016)">
            <path d="M0,-20.842L0.359,-20.842C1.846,-20.842 2.598,-20.51 2.598,-19.852C2.598,-19.449 2.416,-18.877 2.061,-18.154L-1.6,-10.76L-5.881,-19.309C-6.266,-20.065 -6.287,-20.291 -6.287,-20.33C-6.287,-20.651 -5.654,-20.842 -4.592,-20.842L-4.23,-20.842L-4.23,-22.301L-16.709,-22.301L-16.709,-20.895L-16.406,-20.848C-15.59,-20.715 -15.006,-20.51 -14.682,-20.235C-14.447,-20.039 -14.029,-19.533 -13.365,-18.242L-7.945,-7.647L-7.945,-1.994C-7.945,-1.211 -8.088,-0.676 -8.375,-0.403C-8.611,-0.18 -9.215,0.064 -10.811,-0L-11.184,-0.016L-11.184,1.459L2.775,1.459L2.775,-0.012L2.402,-0C1.301,0.041 0.496,-0.108 0.109,-0.43C-0.217,-0.697 -0.383,-1.235 -0.383,-2.028L-0.383,-8.588L4.152,-17.836C4.746,-19.045 5.227,-19.836 5.58,-20.19C5.908,-20.518 6.416,-20.738 7.094,-20.848L7.396,-20.895L7.396,-22.301L0,-22.301L0,-20.842Z" style="fill:rgb(35,31,32);fill-rule:nonzero;"/>
        </g>
        <g transform="matrix(1,0,0,1,442.207,114.334)">
            <path d="M0,-33.356L0.369,-33.366C0.564,-33.372 0.752,-33.374 0.932,-33.374C2.717,-33.374 3.41,-33.104 3.676,-32.879C3.967,-32.631 4.316,-31.911 4.316,-29.877L4.316,-18.69L-6.406,-18.69L-6.406,-29.877C-6.406,-31.692 -6.162,-32.403 -5.959,-32.678C-5.605,-33.143 -4.697,-33.391 -3.334,-33.391C-3.025,-33.391 -2.686,-33.383 -2.309,-33.366L-1.934,-33.348L-1.934,-35.254L-22.572,-35.254L-22.572,-33.35L-22.197,-33.366C-21.807,-33.383 -21.447,-33.391 -21.121,-33.391C-19.705,-33.391 -18.758,-33.143 -18.391,-32.674C-18.186,-32.409 -17.943,-31.71 -17.943,-29.877L-17.943,-3.481C-17.943,-1.415 -18.313,-0.7 -18.621,-0.465C-18.91,-0.245 -19.658,0.017 -21.588,0.017C-21.785,0.017 -21.99,0.015 -22.203,0.009L-22.572,-0.002L-22.572,1.898L-1.934,1.898L-1.934,-0.004L-2.307,0.009C-2.568,0.017 -2.816,0.023 -3.051,0.023C-4.813,0.023 -5.494,-0.239 -5.756,-0.456C-6.051,-0.702 -6.406,-1.428 -6.406,-3.481L-6.406,-15.526L4.316,-15.526L4.316,-3.481C4.316,-1.504 3.961,-0.768 3.666,-0.497C3.408,-0.26 2.742,0.021 1.039,0.021C0.828,0.021 0.605,0.017 0.373,0.009L0,-0.006L0,1.898L20.744,1.898L20.744,0.009L19.213,0.009C17.291,0.009 16.563,-0.387 16.301,-0.71C16.096,-0.973 15.854,-1.672 15.854,-3.504L15.854,-29.879C15.854,-31.71 16.107,-32.407 16.322,-32.67C16.58,-33.001 17.271,-33.391 19.084,-33.391C19.459,-33.391 19.889,-33.383 20.371,-33.366L20.744,-33.354L20.744,-35.254L0,-35.254L0,-33.356Z" style="fill:rgb(35,31,32);fill-rule:nonzero;"/>
        </g>
        <g transform="matrix(1,0,0,1,477.381,88.6503)">
            <path d="M0,19.92C-1.59,19.92 -2.738,18.885 -3.51,16.752C-4.141,15.025 -4.459,12.725 -4.459,9.92C-4.459,6.688 -4.047,4.178 -3.234,2.459C-2.453,0.805 -1.396,0 0,0C2.959,0 4.459,3.404 4.459,10.117C4.459,16.621 2.959,19.92 0,19.92M0,-2.232C-4.262,-2.232 -7.6,-0.941 -9.92,1.6C-11.936,3.809 -12.957,6.607 -12.957,9.92C-12.957,12.961 -12.063,15.627 -10.297,17.84C-8.012,20.701 -4.559,22.152 -0.033,22.152C4.555,22.152 8.035,20.713 10.311,17.873C12.066,15.691 12.955,12.988 12.955,9.836C12.955,6.42 11.865,3.57 9.713,1.363C7.371,-1.021 4.105,-2.232 0,-2.232" style="fill:rgb(35,31,32);fill-rule:nonzero;"/>
        </g>
        <g transform="matrix(1,0,0,1,507.996,97.317)">
            <path d="M0,2.556L-5.334,-10.382L-5.428,-10.602L-16.438,-10.602L-16.438,-9.151L-16.084,-9.143C-14.76,-9.116 -14.313,-9.007 -14.166,-8.944C-14.004,-8.872 -13.512,-8.657 -13.512,-7.512L-13.512,9.294C-13.512,10.119 -13.693,10.708 -14.055,11.046C-14.43,11.398 -15.121,11.619 -16.107,11.699L-16.438,11.726L-16.438,13.158L-8.268,13.158L-8.268,11.732L-8.594,11.699C-10.381,11.529 -11.213,10.765 -11.213,9.294L-11.213,-5.854L-3.484,12.935L-3.393,13.158L-2.061,13.158L5.896,-5.251L5.896,9.704C5.896,10.472 5.748,10.997 5.451,11.267C5.08,11.611 4.314,11.761 3.199,11.699L2.82,11.677L2.82,13.158L16.17,13.158L16.17,11.677L15.789,11.699C14.77,11.755 14.049,11.613 13.688,11.269C13.393,10.992 13.244,10.476 13.244,9.738L13.244,-6.741C13.244,-8.038 13.502,-8.553 13.721,-8.755C13.936,-8.952 14.543,-9.188 15.945,-9.143L16.316,-9.132L16.316,-10.602L5.807,-10.602L0,2.556Z" style="fill:rgb(35,31,32);fill-rule:nonzero;"/>
        </g>
        <g transform="matrix(1,0,0,1,545.328,94.2556)">
            <path d="M0,8.678C-0.799,12.338 -2.787,14.117 -6.08,14.117L-8.414,14.117C-8.771,14.117 -9.045,14.102 -9.217,14.074C-9.531,14.014 -9.707,13.842 -9.793,13.514C-9.82,13.416 -9.863,13.129 -9.863,12.323L-9.863,5.266L-9.285,5.266C-7.432,5.266 -6.426,6.776 -6.207,9.881L-6.184,10.215L-4.715,10.215L-4.715,-1.851L-6.184,-1.851L-6.207,-1.517C-6.426,1.633 -7.508,3.164 -9.516,3.164L-9.863,3.164L-9.863,-5.441L-6.209,-5.441C-3.361,-5.441 -1.807,-3.883 -1.453,-0.679L-1.418,-0.359L0.037,-0.359L0.037,-7.541L-20.699,-7.541L-20.699,-6.072L-20.326,-6.082C-20.189,-6.088 -20.059,-6.09 -19.93,-6.09C-18.617,-6.09 -18.094,-5.861 -17.883,-5.668C-17.674,-5.474 -17.424,-4.967 -17.424,-3.646L-17.424,12.356C-17.424,13.69 -17.662,14.147 -17.814,14.305C-18,14.518 -18.467,14.772 -19.645,14.772C-19.791,14.772 -19.945,14.768 -20.105,14.76L-20.482,14.742L-20.482,16.219L0.246,16.219L1.516,8.395L0.063,8.395L0,8.678Z" style="fill:rgb(35,31,32);fill-rule:nonzero;"/>
        </g>
        <g transform="matrix(1,0,0,1,564.945,99.5796)">
            <path d="M0,-1.939C-0.908,-2.847 -2.678,-3.828 -5.406,-4.937C-8.646,-6.255 -9.676,-6.877 -9.967,-7.168C-10.416,-7.619 -10.633,-8.095 -10.633,-8.625C-10.633,-9.339 -10.318,-9.902 -9.672,-10.351C-8.988,-10.822 -8.09,-11.06 -6.996,-11.06C-5.207,-11.06 -3.656,-10.517 -2.385,-9.443C-1.119,-8.373 -0.361,-6.986 -0.133,-5.318L-0.09,-5.007L1.322,-5.007L1.322,-12.865L-0.1,-12.865L-0.133,-12.544C-0.248,-11.517 -0.725,-11.517 -0.91,-11.515C-0.988,-11.525 -1.359,-11.623 -3.133,-12.314C-4.572,-12.877 -6.188,-13.162 -7.934,-13.162C-10.838,-13.162 -13.092,-12.375 -14.639,-10.818C-15.928,-9.513 -16.584,-7.908 -16.584,-6.043C-16.584,-4.152 -15.949,-2.562 -14.701,-1.316C-13.492,-0.105 -11.586,1.053 -9.037,2.125C-5.971,3.416 -4.906,4.108 -4.551,4.461C-3.982,5.02 -3.705,5.661 -3.705,6.422C-3.705,7.202 -4.039,7.803 -4.723,8.262C-5.443,8.747 -6.436,8.991 -7.672,8.991C-9.383,8.991 -10.922,8.506 -12.246,7.547C-13.85,6.381 -14.887,4.62 -15.328,2.311L-15.383,2.018L-16.814,2.018L-16.814,10.895L-15.5,10.895L-15.41,10.665C-14.955,9.481 -14.389,9.481 -14.209,9.481C-14.123,9.487 -13.701,9.584 -11.658,10.331C-10.037,10.922 -8.342,11.223 -6.617,11.223C-3.9,11.223 -1.719,10.547 -0.131,9.215C1.477,7.868 2.293,6.01 2.293,3.694C2.293,1.477 1.521,-0.419 0,-1.939" style="fill:rgb(35,31,32);fill-rule:nonzero;"/>
        </g>
        <g transform="matrix(1,0,0,1,283.697,33.6678)">
            <path d="M0,26.654C0,27.929 -0.257,28.812 -0.768,29.277C-1.401,29.864 -2.654,30.113 -4.484,30.013L-4.862,29.995L-4.862,31.903L15.831,31.903L15.831,29.993L15.45,30.013C13.766,30.114 12.586,29.865 11.971,29.281C11.459,28.799 11.2,27.932 11.2,26.707L11.2,0.65C11.2,-1.059 11.477,-2.182 12.022,-2.689C12.569,-3.198 13.809,-3.423 15.69,-3.361L16.063,-3.347L16.063,-5.249L-0.212,-5.249L-9.537,15.882L-18.259,-5.249L-35.324,-5.249L-35.324,-3.367L-34.972,-3.361C-32.941,-3.318 -32.157,-3.155 -31.857,-3.026C-31.075,-2.687 -30.694,-1.883 -30.694,-0.574L-30.694,26.006C-30.694,27.367 -31.006,28.351 -31.62,28.926C-32.25,29.518 -33.386,29.883 -34.993,30.015L-35.324,30.042L-35.324,31.903L-22.823,31.903L-22.823,30.047L-23.15,30.015C-26.063,29.739 -27.478,28.426 -27.478,26.006L-27.478,0.993L-14.76,31.903L-12.928,31.903L0,1.992L0,26.654Z" style="fill:rgb(35,31,32);fill-rule:nonzero;"/>
        </g>
        <g transform="matrix(1,0,0,1,314.703,33.5864)">
            <path d="M0,28.044C4.256,28.044 7.799,26.23 10.527,22.649L10.604,22.552L10.604,18.569L9.939,19.612C7.525,23.4 4.844,25.321 1.965,25.321C-1.645,25.321 -3.477,21.627 -3.477,14.343C-3.477,10.765 -2.93,7.879 -1.854,5.766C-0.803,3.706 0.559,2.703 2.305,2.703C3.705,2.703 5.02,3.262 6.217,4.366C7.441,5.492 8.422,7.065 9.129,9.041L9.213,9.28L10.604,9.28L10.604,0L9.232,0L9.139,0.215C8.676,1.262 8.162,1.793 7.615,1.793C7.486,1.793 6.992,1.714 5.18,0.987C3.758,0.42 2.191,0.132 0.529,0.132C-3.488,0.132 -6.807,1.505 -9.336,4.214C-11.855,6.917 -13.135,10.413 -13.135,14.607C-13.135,18.764 -11.746,22.14 -9.012,24.643C-6.535,26.899 -3.502,28.044 0,28.044" style="fill:rgb(35,31,32);fill-rule:nonzero;"/>
        </g>
        <g transform="matrix(1,0,0,1,345.9,27.7673)">
            <path d="M0,38.324C5.813,38.324 10.65,35.845 14.381,30.953L14.455,30.856L14.455,25.886L13.791,26.928C10.445,32.182 6.717,34.847 2.705,34.847C-2.354,34.847 -4.92,29.72 -4.92,19.604C-4.92,14.656 -4.162,10.666 -2.67,7.741C-1.197,4.855 0.713,3.451 3.172,3.451C5.133,3.451 6.975,4.233 8.65,5.774C10.35,7.339 11.707,9.522 12.691,12.263L12.775,12.502L14.455,12.502L14.455,0L12.795,0L12.699,0.216C12.039,1.711 11.291,2.47 10.48,2.47C10.25,2.47 9.504,2.325 7.076,1.352C5.133,0.576 2.996,0.181 0.727,0.181C-4.76,0.181 -9.291,2.058 -12.746,5.759C-16.193,9.452 -17.939,14.232 -17.939,19.969C-17.939,25.648 -16.045,30.261 -12.309,33.678C-8.93,36.761 -4.787,38.324 0,38.324" style="fill:rgb(35,31,32);fill-rule:nonzero;"/>
        </g>
        <g transform="matrix(1,0,0,1,375.846,58.9467)">
            <path d="M0,-22.582C1.35,-22.582 2.342,-22.106 3.031,-21.129C3.668,-20.225 3.986,-18.972 3.986,-17.405C3.986,-13.795 2.584,-12.039 -0.301,-12.039L-1.568,-12.039L-1.568,-22.582L0,-22.582ZM-12.721,-23.336C-11.441,-23.336 -10.887,-23.088 -10.654,-22.884C-10.322,-22.583 -10.148,-21.902 -10.148,-20.919L-10.148,-1.492C-10.148,-0.644 -10.318,-0.061 -10.656,0.245C-11.082,0.64 -11.926,0.811 -13.131,0.736L-13.512,0.715L-13.512,2.307L1.949,2.307L1.949,0.715L1.566,0.736C0.176,0.817 -0.746,0.598 -1.154,0.099C-1.344,-0.142 -1.568,-0.715 -1.568,-2.08L-1.568,-9.732L-1.246,-9.732L5.65,2.307L15.934,2.307L15.934,0.736L15.572,0.736C14.506,0.736 13.668,0.177 13.014,-0.973L7.646,-10.488C10.85,-11.758 12.473,-14.058 12.473,-17.328C12.473,-22.345 9.18,-24.889 2.686,-24.889L-13.701,-24.889L-13.701,-23.302L-13.322,-23.319C-13.111,-23.331 -12.912,-23.336 -12.721,-23.336" style="fill:rgb(35,31,32);fill-rule:nonzero;"/>
        </g>
        <g transform="matrix(1,0,0,1,392.654,59.6906)">
            <path d="M0,-24.07C1.531,-24.07 2.146,-23.799 2.395,-23.57C2.643,-23.343 2.939,-22.75 2.939,-21.211L2.939,-2.824C2.939,-1.345 2.693,-0.776 2.48,-0.549C2.113,-0.127 1.18,0.064 -0.199,-0.007L-0.576,-0.027L-0.576,1.563L23.145,1.563L24.584,-7.322L23.021,-7.322L22.959,-7.04C22.035,-2.804 19.734,-0.746 15.922,-0.746L13.238,-0.746C12.814,-0.746 12.508,-0.763 12.305,-0.795C11.924,-0.869 11.709,-1.081 11.604,-1.48C11.564,-1.622 11.52,-1.977 11.52,-2.861L11.52,-11.024L12.236,-11.024C14.402,-11.024 15.576,-9.273 15.826,-5.67L15.852,-5.336L17.436,-5.336L17.436,-19.093L15.852,-19.093L15.826,-18.76C15.576,-15.105 14.314,-13.329 11.973,-13.329L11.52,-13.329L11.52,-23.326L15.77,-23.326C19.076,-23.326 20.881,-21.521 21.289,-17.806L21.326,-17.486L22.896,-17.486L22.896,-25.633L-0.822,-25.633L-0.822,-24.052L-0.451,-24.063C-0.295,-24.069 -0.145,-24.07 0,-24.07" style="fill:rgb(35,31,32);fill-rule:nonzero;"/>
        </g>
        <g transform="matrix(1,0,0,1,430.863,44.6803)">
            <path d="M0,5.951L-5.215,5.951L-2.766,-0.613L0,5.951ZM12.318,14.709C12.203,14.605 11.939,14.263 11.473,13.161L1.307,-10.403L1.213,-10.622L-1.6,-10.622L-9.66,11.212C-10.234,12.75 -10.748,13.78 -11.189,14.271C-11.598,14.73 -12.186,14.969 -12.986,15.003L-13.33,15.017L-13.33,16.573L-4.561,16.573L-4.561,15.003L-4.92,15.003C-6.051,15.003 -6.842,14.881 -7.268,14.641C-7.635,14.438 -7.811,14.056 -7.811,13.472C-7.811,13.268 -7.746,12.849 -7.436,12.007L-6.104,8.258L0.967,8.258L2.801,12.485C3.068,13.09 3.203,13.615 3.203,14.04C3.203,14.218 3.203,14.692 2.227,14.895C1.941,14.954 1.285,14.989 0.271,15.003L-0.084,15.006L-0.084,16.573L13.713,16.573L13.713,15.025L13.375,15.004C12.729,14.964 12.441,14.819 12.318,14.709" style="fill:rgb(35,31,32);fill-rule:nonzero;"/>
        </g>
        <g transform="matrix(1,0,0,1,458.637,58.9467)">
            <path d="M0,-22.582C1.35,-22.582 2.342,-22.106 3.029,-21.129C3.664,-20.225 3.986,-18.972 3.986,-17.405C3.986,-13.795 2.582,-12.039 -0.303,-12.039L-1.57,-12.039L-1.57,-22.582L0,-22.582ZM-12.723,-23.336C-11.443,-23.336 -10.889,-23.088 -10.656,-22.884C-10.324,-22.583 -10.15,-21.902 -10.15,-20.919L-10.15,-1.492C-10.15,-0.644 -10.32,-0.061 -10.658,0.245C-11.082,0.64 -11.928,0.811 -13.133,0.736L-13.514,0.715L-13.514,2.307L1.945,2.307L1.945,0.715L1.564,0.736C0.18,0.817 -0.748,0.598 -1.154,0.099C-1.344,-0.142 -1.57,-0.715 -1.57,-2.08L-1.57,-9.732L-1.25,-9.732L5.648,2.307L15.932,2.307L15.932,0.736L15.572,0.736C14.502,0.736 13.666,0.177 13.012,-0.973L7.643,-10.488C10.85,-11.758 12.473,-14.058 12.473,-17.328C12.473,-22.345 9.178,-24.889 2.684,-24.889L-13.703,-24.889L-13.703,-23.302L-13.324,-23.319C-13.113,-23.331 -12.912,-23.336 -12.723,-23.336" style="fill:rgb(35,31,32);fill-rule:nonzero;"/>
        </g>
        <g transform="matrix(1,0,0,1,480.893,36.1055)">
            <path d="M0,23.101C-0.273,23.367 -0.961,23.665 -2.834,23.578L-3.209,23.561L-3.209,25.148L12.723,25.148L12.723,23.564L12.352,23.578C12.211,23.583 12.074,23.585 11.943,23.585L11.941,23.585C10.85,23.585 10.09,23.414 9.68,23.073C9.293,22.755 9.096,22.123 9.096,21.198L9.096,13.644L14.311,3.007C14.996,1.614 15.551,0.698 15.963,0.287C16.346,-0.096 16.941,-0.354 17.73,-0.483L18.033,-0.532L18.033,-2.047L9.641,-2.047L9.641,-0.478L10.002,-0.478C11.744,-0.478 12.627,-0.077 12.627,0.712C12.627,1.183 12.416,1.848 12.004,2.687L7.75,11.281L2.781,1.361C2.357,0.527 2.311,0.246 2.311,0.163C2.311,-0.415 3.711,-0.478 4.314,-0.478L4.674,-0.478L4.674,-2.047L-9.557,-2.047L-9.557,-0.532L-9.256,-0.483C-8.307,-0.33 -7.631,-0.088 -7.246,0.232C-6.85,0.565 -6.338,1.342 -5.721,2.539L0.514,14.727L0.514,21.234C0.514,22.148 0.342,22.775 0,23.101" style="fill:rgb(35,31,32);fill-rule:nonzero;"/>
        </g>
        <g transform="matrix(1,0,0,1,504.31,40.6418)">
            <path d="M0,0.636C0.695,0.636 1.313,0.396 1.834,-0.081C1.846,0.009 1.852,0.104 1.852,0.2C1.852,2.697 0.457,4.62 -2.412,6.079L-2.723,6.237L-2.043,7.691L-1.738,7.592C0.385,6.891 2.105,5.738 3.377,4.164C4.66,2.58 5.311,0.784 5.311,-1.172C5.311,-2.786 4.855,-4.178 3.957,-5.312C3.039,-6.468 1.906,-7.055 0.586,-7.055C-0.504,-7.055 -1.455,-6.653 -2.24,-5.86C-3.023,-5.066 -3.422,-4.097 -3.422,-2.982C-3.422,-1.994 -3.082,-1.136 -2.416,-0.432C-1.744,0.276 -0.932,0.636 0,0.636" style="fill:rgb(35,31,32);fill-rule:nonzero;"/>
        </g>
        <g transform="matrix(1,0,0,1,513.584,34.326)">
            <path d="M0,26.696C0.359,25.757 0.832,25.301 1.436,25.301C1.533,25.308 2.012,25.417 4.379,26.281C6.234,26.961 8.178,27.304 10.152,27.304C13.26,27.304 15.758,26.533 17.574,25.009C19.41,23.471 20.34,21.35 20.34,18.706C20.34,16.175 19.457,14.01 17.721,12.272C16.68,11.232 14.654,10.109 11.527,8.839C7.793,7.322 6.607,6.601 6.268,6.261C5.74,5.736 5.484,5.177 5.484,4.55C5.484,3.712 5.857,3.049 6.615,2.522C7.408,1.976 8.451,1.699 9.719,1.699C11.789,1.699 13.582,2.329 15.051,3.57C16.516,4.809 17.395,6.414 17.658,8.342L17.701,8.653L19.225,8.653L19.225,-0.268L17.693,-0.268L17.656,0.053C17.537,1.142 17.078,1.281 16.705,1.281C16.617,1.273 16.191,1.164 14.139,0.362C12.49,-0.282 10.643,-0.608 8.641,-0.608C5.318,-0.608 2.74,0.292 0.979,2.068C-0.496,3.556 -1.242,5.389 -1.242,7.519C-1.242,9.674 -0.521,11.489 0.902,12.914C2.291,14.3 4.475,15.627 7.396,16.855C10.23,18.047 11.969,18.953 12.564,19.549C13.23,20.202 13.555,20.953 13.555,21.842C13.555,22.756 13.164,23.462 12.361,24C11.527,24.563 10.375,24.846 8.943,24.846C6.965,24.846 5.184,24.286 3.654,23.177C1.801,21.828 0.602,19.793 0.094,17.127L0.037,16.834L-1.506,16.834L-1.506,26.927L-0.088,26.927L0,26.696Z" style="fill:rgb(35,31,32);fill-rule:nonzero;"/>
        </g>
        <g transform="matrix(1,0,0,1,102.044,132.383)">
            <path d="M0,-120.764L0.094,-120.769L-1.748,-120.764L-2.912,-120.78L-2.943,-120.764L-3.088,-120.684L-3.66,-120.306L-4.287,-119.896L-31.424,-102.458L-31.424,-117.217L-56.963,-117.217L-56.963,-86.041L-77.314,-72.967L-77.617,-72.768L-77.617,-49.633L-64.823,-49.633L-64.809,-11.377L-92.779,-11.377L-92.734,-2L-92.734,0.016L0.47,0.016L0.442,-12.933L-26.27,-13.017L-26.377,-73.862L1.875,-73.542L1.875,-120.764L0,-120.764Z" style="fill:rgb(148,199,66);fill-rule:nonzero;"/>
        </g>
        <g transform="matrix(1,0,0,1,9.8091,12.1034)">
            <path d="M0,119.795L92.203,119.795L92.178,107.844L65.465,107.76L65.357,46.156L93.609,46.237L93.609,0.015L89.391,0.032L88.221,0.802L60.311,18.737L60.311,3.562L35.771,3.562L35.771,34.511L15.117,47.781L15.117,70.147L27.911,70.147L27.926,109.402L-0.043,109.402L0,119.795ZM93.205,120.795L-1,120.795L-1.047,108.402L26.926,108.402L26.911,71.147L14.117,71.147L14.117,47.242L14.646,46.894L34.771,33.964L34.771,2.562L61.311,2.562L61.311,16.905L89.164,-0.987L89.329,-1L90.492,-0.985L92.326,-0.99L92.326,-0.985L94.609,-0.985L94.609,47.238L66.359,47.158L66.463,106.764L93.176,106.848L93.205,120.795Z" style="fill:rgb(35,31,32);fill-rule:nonzero;"/>
        </g>
        <g transform="matrix(1,0,0,1,148.789,114.077)">
            <path d="M0,-84.153L45.892,-54.662L46.192,-54.463L46.192,-31.327L33.402,-31.327L33.383,6.929L61.359,6.929L61.313,16.305L61.313,18.321L-31.897,18.321L-31.862,5.372L-5.157,5.288L-5.049,-55.314L-33.298,-55.236L-33.298,-102.459L-31.423,-102.459L-31.513,-102.464L-29.68,-102.461L-28.513,-102.474L-28.48,-102.459L-28.336,-102.377L-27.764,-102.001L-27.135,-101.591L0,-84.153Z" style="fill:rgb(0,174,231);fill-rule:nonzero;"/>
        </g>
        <g transform="matrix(1,0,0,1,117.392,12.1024)">
            <path d="M0,119.796L92.21,119.796L92.253,109.403L64.279,109.403L64.299,70.148L77.089,70.148L77.089,47.781L77.012,47.73L2.761,0.003L1.723,0.014L-0.026,0.011L-0.026,0.016L-1.401,0.016L-1.401,46.238L26.849,46.159L26.738,107.761L0.033,107.845L0,119.796ZM93.21,120.796L-1.002,120.796L-0.965,106.849L25.74,106.765L25.847,47.161L-2.401,47.239L-2.401,-0.984L2.996,-1L3.308,-0.836L4.535,-0.035L78.089,47.244L78.089,71.148L65.299,71.148L65.279,108.403L93.259,108.403L93.21,120.796Z" style="fill:rgb(35,31,32);fill-rule:nonzero;"/>
        </g>
        <g transform="matrix(-1,0,0,1,248.713,11.809)">
            <rect x="115.37" y="54.285" width="17.973" height="21.221" style="fill:rgb(148,199,66);"/>
        </g>
        <g transform="matrix(1,0,0,1,0,11.569)">
            <path d="M115.871,75.006L132.844,75.006L132.844,54.785L115.871,54.785L115.871,75.006ZM133.843,76.006L114.87,76.006L114.87,53.785L133.843,53.785L133.843,76.006Z" style="fill:rgb(35,31,32);fill-rule:nonzero;"/>
        </g>
        <g transform="matrix(-1,0,0,1,248.713,60.82)">
            <rect x="115.37" y="32.668" width="17.973" height="18.564" style="fill:rgb(148,199,66);"/>
        </g>
        <g transform="matrix(1,0,0,1,0,61.06)">
            <path d="M115.871,50.732L132.844,50.732L132.844,33.168L115.871,33.168L115.871,50.732ZM133.843,51.732L114.87,51.732L114.87,32.168L133.843,32.168L133.843,51.732Z" style="fill:rgb(35,31,32);fill-rule:nonzero;"/>
        </g>
        <g transform="matrix(-1,0,0,1,190.108,11.807)">
            <rect x="86.068" y="54.287" width="17.972" height="21.219" style="fill:rgb(0,174,231);"/>
        </g>
        <g transform="matrix(1,0,0,1,0,11.567)">
            <path d="M86.568,75.006L103.54,75.006L103.54,54.787L86.568,54.787L86.568,75.006ZM104.54,76.006L85.568,76.006L85.568,53.787L104.54,53.787L104.54,76.006Z" style="fill:rgb(35,31,32);fill-rule:nonzero;"/>
        </g>
        <g transform="matrix(-1,0,0,1,190.108,61.045)">
            <rect x="86.068" y="32.676" width="17.972" height="18.563" style="fill:rgb(0,174,231);"/>
        </g>
        <g transform="matrix(1,0,0,1,0,61.045)">
            <path d="M86.568,50.739L103.54,50.739L103.54,33.176L86.568,33.176L86.568,50.739ZM104.54,51.739L85.568,51.739L85.568,32.176L104.54,32.176L104.54,51.739Z" style="fill:rgb(35,31,32);fill-rule:nonzero;"/>
        </g>
        <g transform="matrix(0.24,0,0,0.24,0,0)">
            <rect x="5.67" y="6.998" width="2387.34" height="586.328" style="fill:none;"/>
        </g>
    </g>
</svg>
