<?xml version="1.0" encoding="UTF-8" standalone="no"?>
<!DOCTYPE svg PUBLIC "-//W3C//DTD SVG 1.1//EN" "http://www.w3.org/Graphics/SVG/1.1/DTD/svg11.dtd">
<svg width="100%" height="100%" viewBox="0 0 142 145" version="1.1" xmlns="http://www.w3.org/2000/svg" xmlns:xlink="http://www.w3.org/1999/xlink" xml:space="preserve" xmlns:serif="http://www.serif.com/" style="fill-rule:evenodd;clip-rule:evenodd;stroke-miterlimit:10;">
    <g transform="matrix(1,0,0,1,-98.2123,-35.5627)">
        <g id="Stickers">
            <g transform="matrix(1,0,0,1,316.575,0.0002)">
                <path d="M0,337.68L-295.47,337.68C-307.126,337.68 -316.575,328.231 -316.575,316.575L-316.575,21.105C-316.575,9.449 -307.126,0 -295.47,0L0,0C11.656,0 21.105,9.449 21.105,21.105L21.105,316.575C21.105,328.231 11.656,337.68 0,337.68" style="fill:white;fill-rule:nonzero;"/>
            </g>
            <g>
                <g transform="matrix(1,0,0,1,239.47,147.225)">
                    <path d="M0,-37.893C0.004,-42.977 -0.447,-48.051 -1.345,-53.055L-69.126,-53.055L-69.126,-25.254L-30.055,-25.254C-31.575,-16.111 -36.817,-8.006 -44.534,-2.872L-44.534,15.162L-21.339,15.162C-7.777,2.598 0,-15.953 0,-37.893" style="fill:rgb(66,133,244);fill-rule:nonzero;"/>
                </g>
                <g transform="matrix(1,0,0,1,194.899,156.976)">
                    <path d="M0,-12.622C-6.469,-8.257 -14.787,-5.702 -24.555,-5.702C-43.339,-5.702 -59.343,-18.385 -65.061,-35.478L-89.015,-35.478L-89.015,-16.882C-76.766,7.482 -51.824,22.856 -24.555,22.851C-5.064,22.851 11.308,16.441 23.218,5.411L0,-12.622Z" style="fill:rgb(52,168,83);fill-rule:nonzero;"/>
                </g>
                <g transform="matrix(1,0,0,1,127.591,107.695)">
                    <path d="M0,0C0.001,-4.692 0.762,-9.354 2.254,-13.803L2.254,-32.399L-21.707,-32.399C-31.936,-12.011 -31.936,12.011 -21.707,32.399L2.262,13.803C0.768,9.354 0.004,4.693 0,0" style="fill:rgb(250,187,5);fill-rule:nonzero;"/>
                </g>
                <g transform="matrix(1,0,0,1,170.344,65.3337)">
                    <path d="M0,-1.218C10.632,-1.218 20.159,2.441 27.68,9.601L48.291,-10.987C35.78,-22.625 19.476,-29.771 0,-29.771C-27.27,-29.776 -52.211,-14.402 -64.46,9.962L-40.491,28.558C-34.773,11.465 -18.784,-1.218 0,-1.218" style="fill:rgb(233,66,53);fill-rule:nonzero;"/>
                </g>
            </g>
        </g>
        <g id="Marks---Bleeds" serif:id="Marks &amp; Bleeds">
            <g transform="matrix(1,0,0,1,-6,337.68)">
                <path d="M0,-337.68L-27,-337.68M349.68,-337.68L376.68,-337.68M0,0L-27,0M349.68,0L376.68,0M6,-343.68L6,-370.68M6,6L6,33M343.68,-343.68L343.68,-370.68M343.68,6L343.68,33" style="fill:none;fill-rule:nonzero;stroke:white;stroke-width:1.25px;"/>
            </g>
            <g transform="matrix(1,0,0,1,-6,337.68)">
                <path d="M0,-337.68L-27,-337.68M349.68,-337.68L376.68,-337.68M0,0L-27,0M349.68,0L376.68,0M6,-343.68L6,-370.68M6,6L6,33M343.68,-343.68L343.68,-370.68M343.68,6L343.68,33" style="fill:none;fill-rule:nonzero;stroke:black;stroke-width:0.25px;"/>
            </g>
        </g>
    </g>
</svg>
