<?xml version="1.0" standalone="no"?>
<!DOCTYPE svg PUBLIC "-//W3C//DTD SVG 20010904//EN"
 "http://www.w3.org/TR/2001/REC-SVG-20010904/DTD/svg10.dtd">
<svg version="1.0" xmlns="http://www.w3.org/2000/svg"
 width="700.000000pt" height="700.000000pt" viewBox="0 0 700.000000 700.000000"
 preserveAspectRatio="xMidYMid meet">
<metadata>
Created by potrace 1.14, written by Peter Selinger 2001-2017
</metadata>
<g transform="translate(0.000000,700.000000) scale(0.100000,-0.100000)"
fill="#000000" stroke="none">
<path d="M3120 5411 c-14 -10 -56 -39 -95 -63 -38 -25 -222 -142 -407 -262
-186 -119 -340 -216 -343 -216 -3 0 -5 99 -5 220 0 121 -3 221 -7 221 -5 1
-194 3 -420 4 -286 1 -413 -2 -413 -9 -1 -6 -1 -228 -1 -494 0 -440 -2 -485
-17 -498 -9 -8 -156 -103 -327 -212 l-310 -199 -1 -376 c0 -261 3 -377 10
-378 6 -1 97 -2 201 -3 l190 -1 3 -590 2 -590 -442 0 -443 0 -1 -185 c0 -102
1 -190 4 -197 3 -9 363 -12 1518 -12 l1515 0 -4 1927 c-3 1060 -6 1928 -6
1930 -1 1 -40 2 -88 1 -69 0 -94 -4 -113 -18z"/>
<path d="M3679 5428 c-1 -2 -2 -529 -4 -1173 -1 -643 -4 -1510 -5 -1925 l-2
-755 1517 0 1518 0 1 188 c1 104 -1 191 -4 195 -3 4 -201 7 -440 7 l-435 0 -3
590 -2 590 203 0 202 -1 0 378 0 379 -120 78 c-66 43 -329 212 -585 376 -256
164 -501 321 -545 350 -147 95 -259 167 -315 203 -30 19 -77 49 -105 67 -27
18 -198 128 -379 244 l-328 211 -84 0 c-46 0 -85 -1 -85 -2z"/>
</g>
</svg>
